<?xml version="1.0" encoding="utf-8"?>
<!-- Generator: Adobe Illustrator 17.1.0, SVG Export Plug-In . SVG Version: 6.00 Build 0)  -->
<!DOCTYPE svg PUBLIC "-//W3C//DTD SVG 1.1//EN" "http://www.w3.org/Graphics/SVG/1.1/DTD/svg11.dtd">
<svg version="1.1" id="Layer_1" xmlns:svg="http://www.w3.org/2000/svg"
	 xmlns="http://www.w3.org/2000/svg" xmlns:xlink="http://www.w3.org/1999/xlink" x="0px" y="0px" width="610px" height="600px"
	 viewBox="0 0 610 600" style="enable-background:new 0 0 610 600;" xml:space="preserve">
<style type="text/css">
	.st0{fill:#FFFFFF;}
	.st1{fill:none;stroke:#000000;stroke-width:42;}
	.st2{fill:none;stroke:#FFFFFF;stroke-width:17.5;}
	.st3{fill:none;stroke:#000000;stroke-width:42;stroke-linejoin:round;}
	.st4{fill:none;stroke:#FFFFFF;stroke-width:17.5;stroke-linejoin:round;}
	.st5{fill:none;stroke:#FFFFFF;stroke-width:6;}
</style>
<title>Celtic or pseudo-Celtic decorative knot to fill square box. By AnonMoos (public domain)</title>
<rect class="st0" width="610" height="600"/>
<g transform="translate(-94,724.5) scale(1.3,-1.3)">
	<g>
		<path id="SquareKnotPOne" class="st1" d="M486,526h-64.4c-46.6,0-84.4-37.8-84.4-84.4c0-46.6,37.8-84.4,84.4-84.4l51.5,0
			C458,437.7,387.8,496,306,496s-152-58.3-167.1-138.7h51.5c46.6,0,84.4,37.8,84.4,84.4c0,46.6-37.8,84.4-84.4,84.4H126"/>
	</g>
	<g>
		<path id="SquareKnotPOne_1_" class="st2" d="M486,526h-64.4c-46.6,0-84.4-37.8-84.4-84.4c0-46.6,37.8-84.4,84.4-84.4l51.5,0
			C458,437.7,387.8,496,306,496s-152-58.3-167.1-138.7h51.5c46.6,0,84.4,37.8,84.4,84.4c0,46.6-37.8,84.4-84.4,84.4H126"/>
	</g>
	<g>
		<path id="SquareKnotPTwo" class="st1" d="M486,126h-64.4c-46.6,0-84.4,37.8-84.4,84.4c0,46.6,37.8,84.4,84.4,84.4h51.5
			C458,214.3,387.8,156,306,156s-152,58.3-167.1,138.7l51.5,0c46.6,0,84.4-37.8,84.4-84.4c0-46.6-37.8-84.4-84.4-84.4H126"/>
	</g>
	<g>
		<path id="SquareKnotPTwo_1_" class="st2" d="M486,126h-64.4c-46.6,0-84.4,37.8-84.4,84.4c0,46.6,37.8,84.4,84.4,84.4h51.5
			C458,214.3,387.8,156,306,156s-152,58.3-167.1,138.7l51.5,0c46.6,0,84.4-37.8,84.4-84.4c0-46.6-37.8-84.4-84.4-84.4H126"/>
	</g>
	<g>
		<path class="st3" d="M146,126h-40l400,400h-40"/>
		<path class="st4" d="M147,126h-41l400,400h-41"/>
		<path class="st3" d="M146,526h-40l400-400h-40"/>
		<path class="st4" d="M147,526h-41l400-400h-41"/>
	</g>
	<path class="st5" d="M496.7,290.3c2.2,11.8,3.3,23.7,3.3,35.7s-1.1,23.9-3.3,35.7 M115.3,361.7c-2.2-11.8-3.3-23.7-3.3-35.7
		s1.1-23.9,3.3-35.7"/>
	<path class="st1" d="M191.8,357.3c45.4,0.8,82.1,37.4,82.9,82.9 M337.3,211.8c0.8,45.4,37.4,82.1,82.9,82.9 M451.7,413.6
		c-14.3,23.9-34.3,43.8-58.2,58.2 M160.3,238.4c14.3-23.9,34.3-43.8,58.2-58.2 M303,496c-27.8-0.5-55.1-7.8-79.5-21.3 M309,156
		c27.8,0.5,55.1,7.8,79.4,21.3 M191.8,126c45.4,0.8,82.1,37.4,82.9,82.9 M420.2,526c-45.4-0.8-82.1-37.4-82.9-82.9"/>
	<path class="st2" d="M190.4,357.3c46.6,0,84.4,37.8,84.4,84.4 M337.3,210.4c0,46.6,37.8,84.4,84.4,84.4 M453.2,411
		c-14.9,25.8-36.4,47.3-62.2,62.2 M158.8,241c14.9-25.8,36.4-47.3,62.2-62.2 M306,496c-29.8,0-59.2-7.9-85-22.8 M306,156
		c29.8,0,59.2,7.9,85,22.8 M190.4,126c46.6,0,84.4,37.8,84.4,84.4 M421.6,526c-46.6,0-84.4-37.8-84.4-84.4"/>
</g>
</svg>
